<?xml version="1.0" encoding="UTF-8"?>
<svg xmlns="http://www.w3.org/2000/svg" xmlns:xlink="http://www.w3.org/1999/xlink" version="1.1" viewBox="0 0 1000 1208.5">
  <defs>
    <style>
      .cls-1 {
        fill: #ad256d;
      }

      .cls-2 {
        fill: none;
      }

      .cls-3 {
        clip-path: url(#clippath);
      }
    </style>
    <clipPath id="clippath">
      <path class="cls-2" d="M611.4,933.4c-10.6-14-16.3-31.2-16.2-48.7v-81.2h81.2c44.8,0,81.2,36.4,81.1,81.2,0,44.8-36.4,81.2-81.2,81.1-25.5,0-49.6-12-64.9-32.4M422.4,361c0-32.4,26.3-58.7,58.7-58.7h397.6c32.4,0,58.7,26.3,58.7,58.7,0,32.4-26.3,58.7-58.7,58.7h-307.8c-17.2,0-31.1,13.9-31.1,31.1v110.2h-117.4v-200ZM62.5,682.2V121.3c0-32.4,26.3-58.7,58.7-58.7s58.7,26.3,58.7,58.7v471c0,17.3,14,31.2,31.3,31.2h465.1c144.3,0,261.3,116.9,261.3,261.1,0,144.3-116.9,261.3-261.1,261.3-80.5,0-156.5-37-206-100.5-36-45.8-55.5-102.5-55.3-160.8,0-32.4,26.3-58.7,58.8-58.7,32.4,0,58.7,26.3,58.7,58.7v2.3c1.4,79.3,66.8,142.6,146.1,141.2s142.6-66.8,141.2-146.1c-1.3-78.4-65.3-141.2-143.6-141.2H121.2c-32.4,0-58.7-26.3-58.7-58.7M121.2,0C54.3,0,0,54.3,0,121.3v560.9c0,66.9,54.3,121.2,121.2,121.3h231.4v83.6c1.2,177.9,145.8,321.4,323.7,321.4,178.8,0,323.7-145,323.7-323.8,0-178.7-144.9-323.6-323.7-323.7h-74v-78.8h276.5c67,0,121.2-54.3,121.2-121.2s-54.3-121.2-121.2-121.2h-397.6c-66.9,0-121.1,54.3-121.2,121.2v200h-117.4V121.3C242.4,54.3,188.2,0,121.2,0Z"></path>
    </clipPath>
  </defs>
  <g>
    <g id="Camada_1">
      <g id="Grupo_43">
        <g class="cls-3">
          <g id="Grupo_42">
            <rect id="Retângulo_57" class="cls-1" x="-283.4" y="-172.7" width="1567.4" height="1553.1" transform="translate(-283.1 568.8) rotate(-47.8)"></rect>
          </g>
        </g>
      </g>
    </g>
  </g>
</svg>
